# MagicaVoxel @ Ephtracy

# material
mtllib waiting_player.mtl
usemtl palette

# normals
vn -1 0 0
vn 1 0 0
vn 0 0 1
vn 0 0 -1
vn 0 -1 0
vn 0 1 0

# texcoords
vt 0.728516 0.5
vt 0.970703 0.5

# verts
v -5 0 1
v -5 0 -0
v -5 0 -1
v -5 3 1
v -5 3 -0
v -5 3 -1
v -4 3 1
v -4 3 -0
v -4 3 -1
v -4 4 1
v -4 4 -0
v -4 4 -1
v -3 4 1
v -3 4 -0
v -3 4 -1
v -3 5 1
v -3 5 -0
v -3 5 -1
v -3 7 1
v -3 7 -0
v -3 7 -1
v -3 11 1
v -3 11 -0
v -3 11 -1
v -2 6 1
v -2 6 -0
v -2 6 -1
v -2 7 1
v -2 7 -0
v -2 7 -1
v -2 11 1
v -2 11 -0
v -2 11 -1
v -2 12 1
v -2 12 -0
v -2 12 -1
v 2 6 1
v 2 6 -0
v 2 6 -1
v 2 7 1
v 2 7 -0
v 2 7 -1
v 2 11 1
v 2 11 -0
v 2 11 -1
v 2 12 1
v 2 12 -0
v 2 12 -1
v 3 4 1
v 3 4 -0
v 3 4 -1
v 3 5 1
v 3 5 -0
v 3 5 -1
v 3 7 1
v 3 7 -0
v 3 7 -1
v 3 11 1
v 3 11 -0
v 3 11 -1
v 4 3 1
v 4 3 -0
v 4 3 -1
v 4 4 1
v 4 4 -0
v 4 4 -1
v 5 0 1
v 5 0 -0
v 5 0 -1
v 5 3 1
v 5 3 -0
v 5 3 -1
v -5 0 1
v -5 3 1
v -4 3 1
v -4 4 1
v -3 4 1
v -3 5 1
v -3 7 1
v -3 11 1
v -2 6 1
v -2 7 1
v -2 11 1
v -2 12 1
v 2 6 1
v 2 7 1
v 2 11 1
v 2 12 1
v 3 4 1
v 3 5 1
v 3 7 1
v 3 11 1
v 4 3 1
v 4 4 1
v 5 0 1
v 5 3 1
v -5 0 -1
v -5 3 -1
v -4 3 -1
v -4 4 -1
v -3 4 -1
v -3 5 -1
v -3 7 -1
v -3 11 -1
v -2 6 -1
v -2 7 -1
v -2 11 -1
v -2 12 -1
v 2 6 -1
v 2 7 -1
v 2 11 -1
v 2 12 -1
v 3 4 -1
v 3 5 -1
v 3 7 -1
v 3 11 -1
v 4 3 -1
v 4 4 -1
v 5 0 -1
v 5 3 -1
v -5 0 1
v 5 0 1
v -5 0 -0
v 5 0 -0
v -5 0 -1
v 5 0 -1
v -2 6 1
v 2 6 1
v -2 6 -0
v 2 6 -0
v -2 6 -1
v 2 6 -1
v -3 7 1
v -2 7 1
v 2 7 1
v 3 7 1
v -3 7 -0
v -2 7 -0
v 2 7 -0
v 3 7 -0
v -3 7 -1
v -2 7 -1
v 2 7 -1
v 3 7 -1
v -5 3 1
v -4 3 1
v 4 3 1
v 5 3 1
v -5 3 -0
v -4 3 -0
v 4 3 -0
v 5 3 -0
v -5 3 -1
v -4 3 -1
v 4 3 -1
v 5 3 -1
v -4 4 1
v -3 4 1
v 3 4 1
v 4 4 1
v -4 4 -0
v -3 4 -0
v 3 4 -0
v 4 4 -0
v -4 4 -1
v -3 4 -1
v 3 4 -1
v 4 4 -1
v -3 5 1
v 3 5 1
v -3 5 -0
v 3 5 -0
v -3 5 -1
v 3 5 -1
v -3 11 1
v -2 11 1
v 2 11 1
v 3 11 1
v -3 11 -0
v -2 11 -0
v 2 11 -0
v 3 11 -0
v -3 11 -1
v -2 11 -1
v 2 11 -1
v 3 11 -1
v -2 12 1
v 2 12 1
v -2 12 -0
v 2 12 -0
v -2 12 -1
v 2 12 -1

# faces
f 4/2/1 2/2/1 1/2/1
f 5/1/1 3/1/1 2/1/1
f 5/2/1 2/2/1 4/2/1
f 6/1/1 3/1/1 5/1/1
f 10/2/1 8/2/1 7/2/1
f 11/1/1 9/1/1 8/1/1
f 11/2/1 8/2/1 10/2/1
f 12/1/1 9/1/1 11/1/1
f 16/2/1 14/2/1 13/2/1
f 17/1/1 15/1/1 14/1/1
f 17/2/1 14/2/1 16/2/1
f 18/1/1 15/1/1 17/1/1
f 22/2/1 20/2/1 19/2/1
f 23/1/1 21/1/1 20/1/1
f 23/2/1 20/2/1 22/2/1
f 24/1/1 21/1/1 23/1/1
f 28/2/1 26/2/1 25/2/1
f 29/1/1 27/1/1 26/1/1
f 29/2/1 26/2/1 28/2/1
f 30/1/1 27/1/1 29/1/1
f 34/2/1 32/2/1 31/2/1
f 35/1/1 33/1/1 32/1/1
f 35/2/1 32/2/1 34/2/1
f 36/1/1 33/1/1 35/1/1
f 37/2/2 38/2/2 40/2/2
f 38/1/2 39/1/2 41/1/2
f 40/2/2 38/2/2 41/2/2
f 41/1/2 39/1/2 42/1/2
f 43/2/2 44/2/2 46/2/2
f 44/1/2 45/1/2 47/1/2
f 46/2/2 44/2/2 47/2/2
f 47/1/2 45/1/2 48/1/2
f 49/2/2 50/2/2 52/2/2
f 50/1/2 51/1/2 53/1/2
f 52/2/2 50/2/2 53/2/2
f 53/1/2 51/1/2 54/1/2
f 55/2/2 56/2/2 58/2/2
f 56/1/2 57/1/2 59/1/2
f 58/2/2 56/2/2 59/2/2
f 59/1/2 57/1/2 60/1/2
f 61/2/2 62/2/2 64/2/2
f 62/1/2 63/1/2 65/1/2
f 64/2/2 62/2/2 65/2/2
f 65/1/2 63/1/2 66/1/2
f 67/2/2 68/2/2 70/2/2
f 68/1/2 69/1/2 71/1/2
f 70/2/2 68/2/2 71/2/2
f 71/1/2 69/1/2 72/1/2
f 75/2/3 74/2/3 73/2/3
f 77/2/3 76/2/3 75/2/3
f 82/2/3 80/2/3 79/2/3
f 83/2/3 80/2/3 82/2/3
f 85/2/3 82/2/3 81/2/3
f 85/2/3 84/2/3 83/2/3
f 85/2/3 83/2/3 82/2/3
f 86/2/3 84/2/3 85/2/3
f 87/2/3 84/2/3 86/2/3
f 88/2/3 84/2/3 87/2/3
f 89/2/3 77/2/3 75/2/3
f 89/2/3 78/2/3 77/2/3
f 90/2/3 78/2/3 89/2/3
f 91/2/3 87/2/3 86/2/3
f 92/2/3 87/2/3 91/2/3
f 93/2/3 75/2/3 73/2/3
f 93/2/3 89/2/3 75/2/3
f 94/2/3 89/2/3 93/2/3
f 95/2/3 93/2/3 73/2/3
f 96/2/3 93/2/3 95/2/3
f 97/1/4 98/1/4 99/1/4
f 99/1/4 100/1/4 101/1/4
f 103/1/4 104/1/4 106/1/4
f 106/1/4 104/1/4 107/1/4
f 105/1/4 106/1/4 109/1/4
f 107/1/4 108/1/4 109/1/4
f 106/1/4 107/1/4 109/1/4
f 109/1/4 108/1/4 110/1/4
f 110/1/4 108/1/4 111/1/4
f 111/1/4 108/1/4 112/1/4
f 99/1/4 101/1/4 113/1/4
f 101/1/4 102/1/4 113/1/4
f 113/1/4 102/1/4 114/1/4
f 110/1/4 111/1/4 115/1/4
f 115/1/4 111/1/4 116/1/4
f 97/1/4 99/1/4 117/1/4
f 99/1/4 113/1/4 117/1/4
f 117/1/4 113/1/4 118/1/4
f 97/1/4 117/1/4 119/1/4
f 119/1/4 117/1/4 120/1/4
f 123/2/5 122/2/5 121/2/5
f 124/2/5 122/2/5 123/2/5
f 125/1/5 124/1/5 123/1/5
f 126/1/5 124/1/5 125/1/5
f 129/2/5 128/2/5 127/2/5
f 130/2/5 128/2/5 129/2/5
f 131/1/5 130/1/5 129/1/5
f 132/1/5 130/1/5 131/1/5
f 137/2/5 134/2/5 133/2/5
f 138/2/5 134/2/5 137/2/5
f 139/2/5 136/2/5 135/2/5
f 140/2/5 136/2/5 139/2/5
f 141/1/5 138/1/5 137/1/5
f 142/1/5 138/1/5 141/1/5
f 143/1/5 140/1/5 139/1/5
f 144/1/5 140/1/5 143/1/5
f 145/2/6 146/2/6 149/2/6
f 149/2/6 146/2/6 150/2/6
f 147/2/6 148/2/6 151/2/6
f 151/2/6 148/2/6 152/2/6
f 149/1/6 150/1/6 153/1/6
f 153/1/6 150/1/6 154/1/6
f 151/1/6 152/1/6 155/1/6
f 155/1/6 152/1/6 156/1/6
f 157/2/6 158/2/6 161/2/6
f 161/2/6 158/2/6 162/2/6
f 159/2/6 160/2/6 163/2/6
f 163/2/6 160/2/6 164/2/6
f 161/1/6 162/1/6 165/1/6
f 165/1/6 162/1/6 166/1/6
f 163/1/6 164/1/6 167/1/6
f 167/1/6 164/1/6 168/1/6
f 169/2/6 170/2/6 171/2/6
f 171/2/6 170/2/6 172/2/6
f 171/1/6 172/1/6 173/1/6
f 173/1/6 172/1/6 174/1/6
f 175/2/6 176/2/6 179/2/6
f 179/2/6 176/2/6 180/2/6
f 177/2/6 178/2/6 181/2/6
f 181/2/6 178/2/6 182/2/6
f 179/1/6 180/1/6 183/1/6
f 183/1/6 180/1/6 184/1/6
f 181/1/6 182/1/6 185/1/6
f 185/1/6 182/1/6 186/1/6
f 187/2/6 188/2/6 189/2/6
f 189/2/6 188/2/6 190/2/6
f 189/1/6 190/1/6 191/1/6
f 191/1/6 190/1/6 192/1/6
